<mxfile host="app.diagrams.net" modified="2022-04-13T10:22:53.475Z" agent="5.0 (Macintosh; Intel Mac OS X 10_15_7) AppleWebKit/537.36 (KHTML, like Gecko) Chrome/100.0.4896.75 Safari/537.36" etag="i7MkfppFEwLKLSS6X5_9" version="17.4.1" type="github">
  <diagram id="SEs2eCOeeEr-L2bJc6SK" name="Page-1">
    <mxGraphModel dx="3637" dy="734" grid="0" gridSize="10" guides="1" tooltips="1" connect="1" arrows="1" fold="1" page="0" pageScale="1" pageWidth="827" pageHeight="1169" math="0" shadow="0">
      <root>
        <mxCell id="0" />
        <mxCell id="1" parent="0" />
        <mxCell id="LtG1WxAbE4VyEGsOY--L-33" style="edgeStyle=orthogonalEdgeStyle;rounded=0;orthogonalLoop=1;jettySize=auto;html=1;entryX=0;entryY=0.5;entryDx=0;entryDy=0;" edge="1" parent="1" source="LtG1WxAbE4VyEGsOY--L-1" target="LtG1WxAbE4VyEGsOY--L-2">
          <mxGeometry relative="1" as="geometry" />
        </mxCell>
        <mxCell id="LtG1WxAbE4VyEGsOY--L-1" value="开始" style="rounded=1;whiteSpace=wrap;html=1;" vertex="1" parent="1">
          <mxGeometry x="-190" y="580" width="120" height="60" as="geometry" />
        </mxCell>
        <mxCell id="LtG1WxAbE4VyEGsOY--L-4" value="" style="edgeStyle=orthogonalEdgeStyle;rounded=0;orthogonalLoop=1;jettySize=auto;html=1;" edge="1" parent="1" source="LtG1WxAbE4VyEGsOY--L-2" target="LtG1WxAbE4VyEGsOY--L-3">
          <mxGeometry relative="1" as="geometry" />
        </mxCell>
        <mxCell id="LtG1WxAbE4VyEGsOY--L-2" value="部门权限校验" style="rounded=0;whiteSpace=wrap;html=1;" vertex="1" parent="1">
          <mxGeometry x="110" y="580" width="120" height="60" as="geometry" />
        </mxCell>
        <mxCell id="LtG1WxAbE4VyEGsOY--L-8" value="" style="edgeStyle=orthogonalEdgeStyle;rounded=0;orthogonalLoop=1;jettySize=auto;html=1;" edge="1" parent="1" source="LtG1WxAbE4VyEGsOY--L-3" target="LtG1WxAbE4VyEGsOY--L-7">
          <mxGeometry relative="1" as="geometry" />
        </mxCell>
        <mxCell id="LtG1WxAbE4VyEGsOY--L-23" style="edgeStyle=orthogonalEdgeStyle;rounded=0;orthogonalLoop=1;jettySize=auto;html=1;" edge="1" parent="1" source="LtG1WxAbE4VyEGsOY--L-3">
          <mxGeometry relative="1" as="geometry">
            <mxPoint x="550" y="610" as="targetPoint" />
          </mxGeometry>
        </mxCell>
        <mxCell id="LtG1WxAbE4VyEGsOY--L-3" value="是否有企业权限" style="rhombus;whiteSpace=wrap;html=1;rounded=0;" vertex="1" parent="1">
          <mxGeometry x="330" y="570" width="150" height="80" as="geometry" />
        </mxCell>
        <mxCell id="LtG1WxAbE4VyEGsOY--L-12" value="" style="edgeStyle=orthogonalEdgeStyle;rounded=0;orthogonalLoop=1;jettySize=auto;html=1;" edge="1" parent="1">
          <mxGeometry relative="1" as="geometry">
            <mxPoint x="885" y="770" as="sourcePoint" />
            <mxPoint x="965" y="770" as="targetPoint" />
          </mxGeometry>
        </mxCell>
        <mxCell id="LtG1WxAbE4VyEGsOY--L-5" value="查询该企业下所有部门的全部员工缴费明细信息" style="whiteSpace=wrap;html=1;rounded=0;" vertex="1" parent="1">
          <mxGeometry x="1030" y="580" width="120" height="60" as="geometry" />
        </mxCell>
        <mxCell id="LtG1WxAbE4VyEGsOY--L-15" value="" style="edgeStyle=orthogonalEdgeStyle;rounded=0;orthogonalLoop=1;jettySize=auto;html=1;" edge="1" parent="1" source="LtG1WxAbE4VyEGsOY--L-7" target="LtG1WxAbE4VyEGsOY--L-14">
          <mxGeometry relative="1" as="geometry" />
        </mxCell>
        <mxCell id="LtG1WxAbE4VyEGsOY--L-7" value="查询操作员具有权限的部门" style="whiteSpace=wrap;html=1;rounded=0;" vertex="1" parent="1">
          <mxGeometry x="345" y="740" width="120" height="60" as="geometry" />
        </mxCell>
        <mxCell id="LtG1WxAbE4VyEGsOY--L-9" value="否" style="text;html=1;align=center;verticalAlign=middle;resizable=0;points=[];autosize=1;strokeColor=none;fillColor=none;" vertex="1" parent="1">
          <mxGeometry x="415" y="670" width="30" height="20" as="geometry" />
        </mxCell>
        <mxCell id="LtG1WxAbE4VyEGsOY--L-10" value="是" style="text;html=1;align=center;verticalAlign=middle;resizable=0;points=[];autosize=1;strokeColor=none;fillColor=none;" vertex="1" parent="1">
          <mxGeometry x="500" y="580" width="30" height="20" as="geometry" />
        </mxCell>
        <mxCell id="LtG1WxAbE4VyEGsOY--L-13" value="结束" style="rounded=1;whiteSpace=wrap;html=1;" vertex="1" parent="1">
          <mxGeometry x="970" y="740" width="120" height="60" as="geometry" />
        </mxCell>
        <mxCell id="LtG1WxAbE4VyEGsOY--L-18" value="" style="edgeStyle=orthogonalEdgeStyle;rounded=0;orthogonalLoop=1;jettySize=auto;html=1;" edge="1" parent="1" source="LtG1WxAbE4VyEGsOY--L-14">
          <mxGeometry relative="1" as="geometry">
            <mxPoint x="545" y="890" as="targetPoint" />
          </mxGeometry>
        </mxCell>
        <mxCell id="LtG1WxAbE4VyEGsOY--L-14" value="查询对应部门下的全部员工缴费明细信息" style="whiteSpace=wrap;html=1;rounded=0;" vertex="1" parent="1">
          <mxGeometry x="345" y="860" width="120" height="60" as="geometry" />
        </mxCell>
        <mxCell id="LtG1WxAbE4VyEGsOY--L-19" value="结束" style="rounded=1;whiteSpace=wrap;html=1;" vertex="1" parent="1">
          <mxGeometry x="550" y="860" width="120" height="60" as="geometry" />
        </mxCell>
        <mxCell id="LtG1WxAbE4VyEGsOY--L-25" style="edgeStyle=orthogonalEdgeStyle;rounded=0;orthogonalLoop=1;jettySize=auto;html=1;entryX=0;entryY=0.5;entryDx=0;entryDy=0;" edge="1" parent="1" source="LtG1WxAbE4VyEGsOY--L-22" target="LtG1WxAbE4VyEGsOY--L-24">
          <mxGeometry relative="1" as="geometry" />
        </mxCell>
        <mxCell id="LtG1WxAbE4VyEGsOY--L-22" value="具有操作企业的权限" style="whiteSpace=wrap;html=1;rounded=0;" vertex="1" parent="1">
          <mxGeometry x="560" y="580" width="120" height="60" as="geometry" />
        </mxCell>
        <mxCell id="LtG1WxAbE4VyEGsOY--L-26" style="edgeStyle=orthogonalEdgeStyle;rounded=0;orthogonalLoop=1;jettySize=auto;html=1;" edge="1" parent="1" source="LtG1WxAbE4VyEGsOY--L-24">
          <mxGeometry relative="1" as="geometry">
            <mxPoint x="1020" y="610" as="targetPoint" />
          </mxGeometry>
        </mxCell>
        <mxCell id="LtG1WxAbE4VyEGsOY--L-31" value="" style="edgeStyle=orthogonalEdgeStyle;rounded=0;orthogonalLoop=1;jettySize=auto;html=1;" edge="1" parent="1" source="LtG1WxAbE4VyEGsOY--L-24" target="LtG1WxAbE4VyEGsOY--L-30">
          <mxGeometry relative="1" as="geometry" />
        </mxCell>
        <mxCell id="LtG1WxAbE4VyEGsOY--L-24" value="企业是否有部门" style="rhombus;whiteSpace=wrap;html=1;rounded=0;" vertex="1" parent="1">
          <mxGeometry x="750" y="570" width="150" height="80" as="geometry" />
        </mxCell>
        <mxCell id="LtG1WxAbE4VyEGsOY--L-27" value="是" style="text;html=1;align=center;verticalAlign=middle;resizable=0;points=[];autosize=1;strokeColor=none;fillColor=none;" vertex="1" parent="1">
          <mxGeometry x="935" y="580" width="30" height="20" as="geometry" />
        </mxCell>
        <mxCell id="LtG1WxAbE4VyEGsOY--L-30" value="&lt;span&gt;查询该企业下所有全部员工缴费明细信息&lt;/span&gt;" style="whiteSpace=wrap;html=1;rounded=0;" vertex="1" parent="1">
          <mxGeometry x="765" y="740" width="120" height="60" as="geometry" />
        </mxCell>
        <mxCell id="LtG1WxAbE4VyEGsOY--L-32" value="否" style="text;html=1;align=center;verticalAlign=middle;resizable=0;points=[];autosize=1;strokeColor=none;fillColor=none;" vertex="1" parent="1">
          <mxGeometry x="830" y="680" width="30" height="20" as="geometry" />
        </mxCell>
        <mxCell id="LtG1WxAbE4VyEGsOY--L-35" value="根据customer_id、dept_id" style="text;html=1;align=center;verticalAlign=middle;resizable=0;points=[];autosize=1;strokeColor=none;fillColor=none;" vertex="1" parent="1">
          <mxGeometry x="-60" y="590" width="160" height="20" as="geometry" />
        </mxCell>
        <mxCell id="LtG1WxAbE4VyEGsOY--L-36" value="" style="rounded=1;whiteSpace=wrap;html=1;" vertex="1" parent="1">
          <mxGeometry x="-1311" y="1023" width="120" height="60" as="geometry" />
        </mxCell>
        <mxCell id="LtG1WxAbE4VyEGsOY--L-39" value="" style="edgeStyle=orthogonalEdgeStyle;rounded=0;orthogonalLoop=1;jettySize=auto;html=1;" edge="1" parent="1" source="LtG1WxAbE4VyEGsOY--L-37" target="LtG1WxAbE4VyEGsOY--L-38">
          <mxGeometry relative="1" as="geometry" />
        </mxCell>
        <mxCell id="LtG1WxAbE4VyEGsOY--L-37" value="操作员获取操作权限企业" style="rounded=0;whiteSpace=wrap;html=1;" vertex="1" parent="1">
          <mxGeometry x="-1020" y="1030" width="120" height="60" as="geometry" />
        </mxCell>
        <mxCell id="LtG1WxAbE4VyEGsOY--L-38" value="&lt;span&gt;查询该企业下所有部门的全部员工缴费明细信息&lt;/span&gt;" style="whiteSpace=wrap;html=1;rounded=0;" vertex="1" parent="1">
          <mxGeometry x="-820" y="1030" width="120" height="60" as="geometry" />
        </mxCell>
      </root>
    </mxGraphModel>
  </diagram>
</mxfile>
